<svg fill="none" height="40" width="135" xmlns="http://www.w3.org/2000/svg"><path d="m124.249 0h-113.492c-.414 0-.823 0-1.235.002-.346.002-.688.008-1.037.013-.758.008-1.513.067-2.26.177a8.208 8.208 0 0 0 -2.145.627 7.294 7.294 0 0 0 -1.826 1.178 6.352 6.352 0 0 0 -1.33 1.621 6.093 6.093 0 0 0 -.704 1.904 11.56 11.56 0 0 0 -.202 2.002c-.01.306-.011.614-.017.92v23.116c.006.31.007.61.017.921.01.671.077 1.34.202 2.002a6.08 6.08 0 0 0 .705 1.905c.342.598.791 1.143 1.33 1.614.533.477 1.15.875 1.826 1.179a8.248 8.248 0 0 0 2.144.63c.748.11 1.503.168 2.26.177.35.007.692.011 1.038.011.412.002.821.002 1.235.002h113.492c.406 0 .818 0 1.223-.002.344 0 .697-.004 1.04-.01a16.872 16.872 0 0 0 2.257-.178 8.363 8.363 0 0 0 2.152-.63 7.1 7.1 0 0 0 1.824-1.181 6.5 6.5 0 0 0 1.333-1.614c.341-.6.576-1.242.698-1.905.126-.661.196-1.33.21-2.002.004-.31.004-.61.004-.921.009-.364.009-.725.009-1.094v-20.928c0-.366 0-.73-.009-1.092 0-.306 0-.614-.004-.92a12.043 12.043 0 0 0 -.21-2.002 6.096 6.096 0 0 0 -.698-1.904c-.696-1.203-1.801-2.182-3.158-2.8a8.324 8.324 0 0 0 -2.152-.627c-.746-.11-1.5-.169-2.257-.176-.343-.005-.696-.011-1.04-.013-.405-.002-.817-.002-1.223-.002z" fill="#cfcfcf"/><path d="m9.54 38.998c-.343 0-.679-.004-1.02-.01a16.211 16.211 0 0 1 -2.108-.163 7.283 7.283 0 0 1 -1.869-.544 6.131 6.131 0 0 1 -1.575-1.01 5.379 5.379 0 0 1 -1.151-1.387 5.225 5.225 0 0 1 -.613-1.646 10.903 10.903 0 0 1 -.187-1.863c-.008-.21-.017-.907-.017-.907v-22.949s.01-.686.017-.888c.008-.623.07-1.245.186-1.86a5.255 5.255 0 0 1 .613-1.651c.294-.514.681-.983 1.145-1.389.464-.41.998-.752 1.582-1.016a7.205 7.205 0 0 1 1.865-.54c.7-.1 1.406-.155 2.115-.163l1.018-.012h115.913l1.03.013c.702.007 1.403.061 2.096.161.655.098 1.29.282 1.884.544 1.171.532 2.123 1.372 2.724 2.404.294.516.498 1.069.604 1.638.117.62.182 1.247.196 1.875.003.282.003.584.003.884.009.373.009.728.009 1.085v20.79c0 .362 0 .714-.009 1.069 0 .323 0 .619-.004.924a11.187 11.187 0 0 1 -.193 1.84 5.238 5.238 0 0 1 -.609 1.66c-.297.509-.684.974-1.146 1.376a6.11 6.11 0 0 1 -1.578 1.016 7.258 7.258 0 0 1 -1.881.546c-.698.1-1.402.155-2.109.162-.33.007-.676.011-1.012.011l-1.222.002z" fill="#232020"/><path d="m24.77 20.3a4.95 4.95 0 0 1 2.357-4.152 5.065 5.065 0 0 0 -3.992-2.157c-1.679-.176-3.307 1.005-4.163 1.005-.872 0-2.19-.988-3.608-.959a5.315 5.315 0 0 0 -4.473 2.728c-1.934 3.349-.491 8.27 1.361 10.976.927 1.326 2.01 2.806 3.428 2.754 1.387-.058 1.905-.885 3.58-.885 1.658 0 2.144.885 3.59.851 1.489-.024 2.426-1.33 3.32-2.669a10.96 10.96 0 0 0 1.52-3.092 4.782 4.782 0 0 1 -2.92-4.4zm-2.73-8.09a4.873 4.873 0 0 0 1.114-3.49 4.957 4.957 0 0 0 -3.207 1.66 4.635 4.635 0 0 0 -1.144 3.361 4.099 4.099 0 0 0 3.236-1.53zm26.26 14.93h-4.733l-1.136 3.356h-2.005l4.483-12.418h2.083l4.483 12.418h-2.038zm-4.242-1.55h3.752l-1.85-5.446h-.052l-1.85 5.447zm17.1.38c0 2.813-1.507 4.621-3.78 4.621a3.07 3.07 0 0 1 -2.848-1.584h-.043v4.484h-1.857v-12.048h1.799v1.505h.034a3.213 3.213 0 0 1 2.883-1.6c2.297 0 3.812 1.816 3.812 4.622zm-1.91 0c0-1.833-.948-3.038-2.393-3.038-1.42 0-2.375 1.23-2.375 3.038 0 1.824.955 3.046 2.375 3.046 1.445 0 2.392-1.196 2.392-3.046zm11.874 0c0 2.813-1.506 4.621-3.778 4.621a3.07 3.07 0 0 1 -2.849-1.584h-.043v4.484h-1.858v-12.048h1.799v1.505h.034a3.213 3.213 0 0 1 2.883-1.6c2.297 0 3.812 1.816 3.812 4.622zm-1.91 0c0-1.833-.947-3.038-2.393-3.038-1.42 0-2.375 1.23-2.375 3.038 0 1.824.955 3.046 2.375 3.046 1.446 0 2.393-1.196 2.393-3.046zm8.499 1.066c.138 1.232 1.334 2.04 2.969 2.04 1.566 0 2.693-.808 2.693-1.919 0-.964-.68-1.54-2.289-1.936l-1.61-.388c-2.28-.55-3.338-1.617-3.338-3.348 0-2.142 1.867-3.614 4.518-3.614 2.624 0 4.423 1.472 4.484 3.614h-1.876c-.113-1.239-1.137-1.987-2.634-1.987s-2.522.757-2.522 1.858c0 .878.655 1.395 2.255 1.79l1.368.336c2.548.603 3.607 1.626 3.607 3.443 0 2.323-1.85 3.778-4.794 3.778-2.754 0-4.613-1.42-4.733-3.667zm11.633-7.736v2.143h1.721v1.471h-1.721v4.991c0 .776.345 1.137 1.101 1.137.205-.003.409-.018.612-.043v1.463c-.34.064-.686.093-1.033.086-1.833 0-2.547-.688-2.547-2.444v-5.19h-1.317v-1.471h1.317v-2.143zm2.719 6.67c0-2.849 1.677-4.639 4.293-4.639 2.625 0 4.295 1.79 4.295 4.639 0 2.856-1.66 4.639-4.295 4.639-2.632 0-4.293-1.783-4.293-4.639zm6.695 0c0-1.954-.896-3.107-2.402-3.107-1.505 0-2.4 1.162-2.4 3.107 0 1.962.895 3.106 2.4 3.106 1.506 0 2.402-1.144 2.402-3.106zm3.426-4.527h1.772v1.54h.043a2.159 2.159 0 0 1 2.178-1.635c.214-.001.428.022.636.07v1.737a2.592 2.592 0 0 0 -.834-.112 1.87 1.87 0 0 0 -1.855 1.286 1.857 1.857 0 0 0 -.082.797v5.37h-1.858zm13.198 6.394c-.25 1.643-1.851 2.771-3.899 2.771-2.633 0-4.268-1.764-4.268-4.595 0-2.84 1.643-4.682 4.19-4.682 2.505 0 4.08 1.72 4.08 4.466v.637h-6.394v.112a2.353 2.353 0 0 0 1.458 2.391c.31.127.643.186.977.173a2.048 2.048 0 0 0 2.091-1.273zm-6.282-2.702h4.526a2.184 2.184 0 0 0 -.608-1.634 2.188 2.188 0 0 0 -1.613-.664 2.29 2.29 0 0 0 -2.305 2.298zm-66.363-13.882h.798a1.002 1.002 0 0 0 1.125-.95c0-.551-.414-.907-1.116-.907a1.064 1.064 0 0 0 -1.204.935h-.876a1.87 1.87 0 0 1 2.108-1.745c1.175 0 2.002.658 2.002 1.604a1.386 1.386 0 0 1 -1.084 1.365v.07a1.39 1.39 0 0 1 1.327 1.443 1.995 1.995 0 0 1 -2.228 1.774 1.982 1.982 0 0 1 -2.241-1.765h.89c.053.57.577.939 1.35.939.774 0 1.28-.414 1.28-.997 0-.591-.476-.956-1.308-.956h-.823zm4.091 2.171c0-.81.605-1.277 1.675-1.344l1.22-.07v-.389c0-.476-.314-.744-.922-.744-.496 0-.84.182-.939.5h-.86c.09-.773.82-1.27 1.84-1.27 1.13 0 1.766.563 1.766 1.514v3.077h-.856v-.633h-.07a1.515 1.515 0 0 1 -1.353.707 1.36 1.36 0 0 1 -1.5-1.348zm2.895-.384v-.377l-1.1.07c-.62.042-.901.253-.901.65 0 .405.351.64.835.64a1.064 1.064 0 0 0 1.166-.983zm3.244-2.097v3.755h-.889v-4.503h2.965v.748zm7.46 1.501c0 1.43-.723 2.328-1.86 2.328a1.467 1.467 0 0 1 -1.385-.756h-.07v2.179h-.89v-6h.856v.744h.066a1.564 1.564 0 0 1 1.415-.819c1.145 0 1.869.893 1.869 2.324zm-.913 0c0-.95-.45-1.526-1.203-1.526-.748 0-1.216.587-1.216 1.53 0 .939.468 1.526 1.212 1.526.756 0 1.207-.575 1.207-1.53zm2.097 3.867v-.766c.097.013.193.018.29.017a.77.77 0 0 0 .815-.628l.066-.22-1.63-4.52h.968l1.13 3.577h.07l1.124-3.576h.943l-1.679 4.689c-.385 1.095-.81 1.447-1.728 1.447-.075 0-.286-.008-.369-.02zm4.467-2.891h.885c.087.397.459.604.98.604.591 0 .954-.261.954-.666 0-.434-.326-.641-.955-.641h-.673v-.69h.662c.537 0 .81-.207.81-.584 0-.33-.264-.583-.81-.583-.497 0-.86.211-.918.567h-.857a1.578 1.578 0 0 1 1.775-1.32c1.07 0 1.682.485 1.682 1.245a.925.925 0 0 1 -.71.922v.07a1.01 1.01 0 0 1 .88 1.014c0 .856-.728 1.422-1.84 1.422-.984 0-1.783-.45-1.865-1.36zm4.988 1.278v-4.503h.881v3.097h.07l2.076-3.097h.88v4.503h-.88v-3.114h-.067l-2.079 3.114h-.88zm8.757-3.755h-1.418v3.755h-.89v-3.755h-1.417v-.748h3.725zm4.787 2.539a1.83 1.83 0 0 1 -1.952 1.303 2.045 2.045 0 0 1 -2.08-2.325 2.077 2.077 0 0 1 2.076-2.352c1.253 0 2.01.856 2.01 2.27v.31h-3.18v.05a1.188 1.188 0 0 0 1.2 1.29 1.079 1.079 0 0 0 1.07-.546zm-3.126-1.451h2.273a1.086 1.086 0 0 0 -1.107-1.167 1.152 1.152 0 0 0 -1.166 1.167zm6.895-1.836h2.03c.881 0 1.398.446 1.398 1.145a.967.967 0 0 1 -.761.951v.07a1.028 1.028 0 0 1 .963 1.038c0 .786-.591 1.299-1.58 1.299h-2.05zm.88.682v1.166h.882c.537 0 .794-.207.794-.587 0-.351-.224-.58-.696-.58zm0 1.82v1.319h1.055c.525 0 .806-.232.806-.658 0-.45-.318-.662-.918-.662h-.942z" fill="#fff"/></svg>