<svg fill="none" height="40" width="135" xmlns="http://www.w3.org/2000/svg" xmlns:xlink="http://www.w3.org/1999/xlink"><linearGradient id="a" gradientUnits="userSpaceOnUse" x1="21.794" x2="5.012" y1="8.81" y2="25.592"><stop offset="0" stop-color="#00a0ff"/><stop offset=".007" stop-color="#00a1ff"/><stop offset=".26" stop-color="#00beff"/><stop offset=".512" stop-color="#00d2ff"/><stop offset=".76" stop-color="#00dfff"/><stop offset="1" stop-color="#00e3ff"/></linearGradient><linearGradient id="b" gradientUnits="userSpaceOnUse" x1="33.829" x2="9.632" y1="20.101" y2="20.101"><stop offset="0" stop-color="#ffe000"/><stop offset=".409" stop-color="#ffbd00"/><stop offset=".775" stop-color="#ffa500"/><stop offset="1" stop-color="#ff9c00"/></linearGradient><linearGradient id="c" gradientUnits="userSpaceOnUse" x1="24.822" x2="2.063" y1="22.396" y2="45.154"><stop offset="0" stop-color="#ff3a44"/><stop offset="1" stop-color="#c31162"/></linearGradient><linearGradient id="d" gradientUnits="userSpaceOnUse" x1="7.292" x2="17.454" y1=".276" y2="10.439"><stop offset="0" stop-color="#32a071"/><stop offset=".069" stop-color="#2da771"/><stop offset=".476" stop-color="#15cf74"/><stop offset=".801" stop-color="#06e775"/><stop offset="1" stop-color="#00f076"/></linearGradient><path d="m124.249 0h-113.492c-.414 0-.823 0-1.235.002-.346.002-.688.008-1.037.013-.758.008-1.513.067-2.26.177a8.208 8.208 0 0 0 -2.145.627 7.294 7.294 0 0 0 -1.826 1.178 6.352 6.352 0 0 0 -1.33 1.621 6.093 6.093 0 0 0 -.704 1.904 11.56 11.56 0 0 0 -.202 2.002c-.01.306-.011.614-.017.92v23.116c.006.31.007.61.017.921.01.671.077 1.34.202 2.002a6.08 6.08 0 0 0 .705 1.905c.342.598.791 1.143 1.33 1.614.533.477 1.15.875 1.826 1.179a8.248 8.248 0 0 0 2.144.63c.748.11 1.503.168 2.26.177.35.007.692.011 1.038.011.412.002.821.002 1.235.002h113.492c.406 0 .818 0 1.223-.002.344 0 .697-.004 1.04-.01a16.872 16.872 0 0 0 2.257-.178 8.363 8.363 0 0 0 2.152-.63 7.1 7.1 0 0 0 1.824-1.181 6.5 6.5 0 0 0 1.333-1.614c.341-.6.576-1.242.698-1.905.126-.661.196-1.33.21-2.002.004-.31.004-.61.004-.921.009-.364.009-.725.009-1.094v-20.928c0-.366 0-.73-.009-1.092 0-.306 0-.614-.004-.92a12.043 12.043 0 0 0 -.21-2.002 6.096 6.096 0 0 0 -.698-1.904c-.696-1.203-1.801-2.182-3.158-2.8a8.324 8.324 0 0 0 -2.152-.627c-.746-.11-1.5-.169-2.257-.176-.343-.005-.696-.011-1.04-.013-.405-.002-.817-.002-1.223-.002z" fill="#cfcfcf"/><path d="m9.54 38.998c-.343 0-.679-.004-1.02-.01a16.211 16.211 0 0 1 -2.108-.163 7.283 7.283 0 0 1 -1.869-.544 6.131 6.131 0 0 1 -1.575-1.01 5.379 5.379 0 0 1 -1.151-1.387 5.225 5.225 0 0 1 -.613-1.646 10.903 10.903 0 0 1 -.187-1.863c-.008-.21-.017-.907-.017-.907v-22.949s.01-.686.017-.888c.008-.623.07-1.245.186-1.86a5.255 5.255 0 0 1 .613-1.651c.294-.514.681-.983 1.145-1.389.464-.41.998-.752 1.582-1.016a7.205 7.205 0 0 1 1.865-.54c.7-.1 1.406-.155 2.115-.163l1.018-.012h115.913l1.03.013c.702.007 1.403.061 2.096.161.655.098 1.29.282 1.884.544 1.171.532 2.123 1.372 2.724 2.404.294.516.498 1.069.604 1.638.117.62.182 1.247.196 1.875.003.282.003.584.003.884.009.373.009.728.009 1.085v20.79c0 .362 0 .714-.009 1.069 0 .323 0 .619-.004.924a11.187 11.187 0 0 1 -.193 1.84 5.238 5.238 0 0 1 -.609 1.66c-.297.509-.684.974-1.146 1.376a6.11 6.11 0 0 1 -1.578 1.016 7.258 7.258 0 0 1 -1.881.546c-.698.1-1.402.155-2.109.162-.33.007-.676.011-1.012.011l-1.222.002z" fill="#232020"/><path d="m68.102 21.9c-2.4 0-4.3 1.8-4.3 4.3 0 2.4 1.9 4.3 4.3 4.3s4.3-1.8 4.3-4.3c0-2.6-1.9-4.3-4.3-4.3zm0 6.8c-1.3 0-2.4-1.1-2.4-2.6s1.1-2.6 2.4-2.6 2.4 1 2.4 2.6c0 1.5-1.1 2.6-2.4 2.6zm-9.3-6.8c-2.4 0-4.3 1.8-4.3 4.3 0 2.4 1.9 4.3 4.3 4.3s4.3-1.8 4.3-4.3c0-2.6-1.9-4.3-4.3-4.3zm0 6.8c-1.3 0-2.4-1.1-2.4-2.6s1.1-2.6 2.4-2.6 2.4 1 2.4 2.6c0 1.5-1.1 2.6-2.4 2.6zm-11.1-5.5v1.8h4.3c-.1 1-.5 1.8-1 2.3-.6.6-1.6 1.3-3.3 1.3-2.7 0-4.7-2.1-4.7-4.8s2.1-4.8 4.7-4.8c1.4 0 2.5.6 3.3 1.3l1.3-1.3c-1.1-1-2.5-1.8-4.5-1.8-3.6 0-6.7 3-6.7 6.6s3.1 6.6 6.7 6.6c2 0 3.4-.6 4.6-1.9 1.2-1.2 1.6-2.9 1.6-4.2 0-.4 0-.8-.1-1.1zm45.4 1.4c-.4-1-1.4-2.7-3.6-2.7s-4 1.7-4 4.3c0 2.4 1.8 4.3 4.2 4.3 1.9 0 3.1-1.2 3.5-1.9l-1.4-1c-.5.7-1.1 1.2-2.1 1.2s-1.6-.4-2.1-1.3l5.7-2.4zm-5.8 1.4c0-1.6 1.3-2.5 2.2-2.5.7 0 1.4.4 1.6.9zm-4.7 4.1h1.9v-12.5h-1.9zm-3-7.3c-.5-.5-1.3-1-2.3-1-2.1 0-4.1 1.9-4.1 4.3s1.9 4.2 4.1 4.2c1 0 1.8-.5 2.2-1h.1v.6c0 1.6-.9 2.5-2.3 2.5-1.1 0-1.9-.8-2.1-1.5l-1.6.7c.5 1.1 1.7 2.5 3.8 2.5 2.2 0 4-1.3 4-4.4v-7.6h-1.8zm-2.2 5.9c-1.3 0-2.4-1.1-2.4-2.6s1.1-2.6 2.4-2.6 2.3 1.1 2.3 2.6-1 2.6-2.3 2.6zm24.4-11.1h-4.5v12.5h1.9v-4.7h2.6c2.1 0 4.1-1.5 4.1-3.9s-2-3.9-4.1-3.9zm.1 6h-2.7v-4.3h2.7c1.4 0 2.2 1.2 2.2 2.1-.1 1.1-.9 2.2-2.2 2.2zm11.5-1.8c-1.4 0-2.8.6-3.3 1.9l1.7.7c.4-.7 1-.9 1.7-.9 1 0 1.9.6 2 1.6v.1c-.3-.2-1.1-.5-1.9-.5-1.8 0-3.6 1-3.6 2.8 0 1.7 1.5 2.8 3.1 2.8 1.3 0 1.9-.6 2.4-1.2h.1v1h1.8v-4.8c-.2-2.2-1.9-3.5-4-3.5zm-.2 6.9c-.6 0-1.5-.3-1.5-1.1 0-1 1.1-1.3 2-1.3.8 0 1.2.2 1.7.4-.2 1.2-1.2 2-2.2 2zm10.5-6.6-2.1 5.4h-.1l-2.2-5.4h-2l3.3 7.6-1.9 4.2h1.9l5.1-11.8zm-16.8 8h1.9v-12.5h-1.9z" fill="#fff"/><path d="m10.395 7.6c-.3.3-.5.8-.5 1.4v22.1c0 .6.2 1.1.5 1.4l.1.1 12.4-12.4v-.2z" fill="url(#a)"/><path d="m26.994 24.4-4.1-4.1v-.3l4.1-4.1.1.1 4.9 2.8c1.4.8 1.4 2.1 0 2.9z" fill="url(#b)"/><path d="m27.095 24.3-4.2-4.2-12.5 12.5c.5.5 1.2.5 2.1.1z" fill="url(#c)"/><path d="m27.095 15.9-14.6-8.3c-.9-.5-1.6-.4-2.1.1l12.5 12.4z" fill="url(#d)"/><path d="m26.994 24.2-14.5 8.2c-.8.5-1.5.4-2 0l-.1.1.1.1c.5.4 1.2.5 2 0z" fill="#232020" opacity=".2"/><path d="m10.396 32.4c-.3-.3-.4-.8-.4-1.4v.1c0 .6.2 1.1.5 1.4v-.1zm21.6-11-5 2.8.1.1 4.9-2.8c.7-.4 1-.9 1-1.4 0 .5-.4.9-1 1.3z" fill="#232020" opacity=".12"/><g fill="#fff"><path d="m12.496 7.7 19.5 11.1c.6.4 1 .8 1 1.3 0-.5-.3-1-1-1.4l-19.5-11.1c-1.4-.8-2.5-.1-2.5 1.5v.1c0-1.6 1.1-2.3 2.5-1.5z" opacity=".25"/><path d="m42.094 14.4h-.7v-2h.6c.5-.4.8-1.2.8-2.3v-3h4v5.3h.7v2h-.7v-1.3h-4.6v1.3zm1.4-4.3c0 .9-.2 1.7-.6 2.3h3v-4.5h-2.5v2.2zm9.9 2.2c-.6.6-1.3.9-2.2.9s-1.6-.3-2.2-.9-.9-1.3-.9-2.2.3-1.6.9-2.2 1.3-.9 2.2-.9 1.6.3 2.2.9.9 1.3.9 2.2-.3 1.6-.9 2.2zm-3.8-.5c.4.4 1 .7 1.6.7s1.2-.2 1.6-.7c.4-.4.7-1 .7-1.7s-.2-1.3-.7-1.7c-.4-.4-1-.7-1.6-.7s-1.2.2-1.6.7c-.4.4-.7 1-.7 1.7s.2 1.3.7 1.7zm8.6 1.4c-.9 0-1.6-.3-2.2-.9s-.9-1.3-.9-2.2.3-1.6.9-2.2 1.3-.9 2.2-.9 1.6.3 2.2 1l-.5.5c-.4-.5-1-.8-1.7-.8s-1.2.2-1.7.7c-.5.4-.7 1-.7 1.7s.2 1.3.7 1.7c.4.4 1 .7 1.7.7s1.3-.3 1.8-.9l.5.5c-.3.3-.6.6-1 .8s-.8.3-1.3.3zm5.501-.1h-.8v-5.3h-1.7v-.7h4.1v.7h-1.7v5.3zm6.898-6-2.3 5.1c-.3.7-.8 1.1-1.4 1.1-.2 0-.4 0-.6-.1l.2-.7c.1.1.3.1.4.1.2 0 .3 0 .4-.1s.2-.2.3-.4l.2-.5-2-4.4h.9l1.5 3.4 1.4-3.4h1zm.903 6v-6h4.3v6h-.8v-5.3h-2.8v5.3zm5.7 0v-6h.8v2.6h3v-2.6h.8v6h-.8v-2.7h-3v2.7zm10.897-.8c-.6.6-1.3.9-2.2.9s-1.6-.3-2.2-.9-.9-1.3-.9-2.2.3-1.6.9-2.2 1.3-.9 2.2-.9 1.6.3 2.2.9.9 1.3.9 2.2c-.1.9-.4 1.6-.9 2.2zm-3.9-.5c.4.4 1 .7 1.6.7s1.2-.2 1.6-.7c.4-.4.7-1 .7-1.7s-.2-1.3-.7-1.7c-.4-.4-1-.7-1.6-.7s-1.2.2-1.6.7a2.413 2.413 0 0 0 0 3.4zm7.9 1.3v-6h2.2c.5 0 .9.2 1.2.5s.5.7.5 1.2c0 .3-.1.5-.2.8-.1.2-.3.4-.6.5.3.1.5.3.7.5s.3.5.3.9c0 .5-.2.9-.5 1.2-.4.3-.8.5-1.3.5h-2.3zm.8-3.4h1.4c.3 0 .5-.1.7-.3s.3-.4.3-.6-.1-.4-.3-.6-.4-.3-.7-.3h-1.4zm0 2.7h1.6c.3 0 .5-.1.7-.3s.3-.4.3-.7c0-.2-.1-.5-.3-.7s-.4-.3-.7-.3h-1.5v2z"/></g></svg>