<svg fill="none" height="169" width="190" xmlns="http://www.w3.org/2000/svg"><path d="m62.5 39.66c0-5.88-1.86-10.62-5.58-14.22-3.6-3.6-8.58-5.4-14.94-5.4-11.4 0-22.26 6.12-32.58 18.36l-7.02-19.08c11.16-12.84 25.26-19.26 42.3-19.26 12.12 0 21.84 3.48 29.16 10.44 7.32 6.84 10.98 16.02 10.98 27.54 0 11.04-3.96 22.32-11.88 33.84-7.8 11.4-20.7 25.2-38.7 41.4h54.18v18.72h-86.04v-16.74c22.08-18.96 37.62-34.2 46.62-45.72s13.5-21.48 13.5-29.88zm104.293 52.02c0-15.84-10.38-23.76-31.14-23.76-9.36 0-19.14 1.5-29.34 4.5l2.34-70.02h74.7v19.44h-53.82l-1.08 29.34c5.4-.84 10.5-1.26 15.3-1.26 13.56 0 24.48 3.66 32.76 10.98 8.4 7.2 12.6 17.34 12.6 30.42 0 13.56-4.5 24.12-13.5 31.68-9 7.44-21 11.16-36 11.16-13.8 0-26.52-3-38.16-9l5.76-19.44c12.12 6.36 22.92 9.54 32.4 9.54 8.64 0 15.3-1.98 19.98-5.94 4.8-4.08 7.2-9.96 7.2-17.64zm-159.233 76.32h-2.06l-1.96-5.3c-.373-1-.6-1.753-.68-2.26h-.04c0 .56-.04 1.333-.12 2.32l-.42 5.24h-2.18l1-10.2h2.92l1.92 5.66c.227.693.427 1.433.6 2.22h.04c.187-.773.407-1.52.66-2.24l2-5.64h2.86l.96 10.2h-2.28l-.4-5.16c-.093-1.147-.14-1.947-.14-2.4h-.04c-.093.573-.32 1.34-.68 2.3zm12.197-8.64c-.64 0-1.174.227-1.6.68-.414.453-.66 1.107-.74 1.96h4.38c-.014-.893-.2-1.553-.56-1.98-.36-.44-.854-.66-1.48-.66zm4.3 4.24h-6.6c.146 1.853 1.073 2.78 2.78 2.78.88 0 1.906-.287 3.08-.86l.52 1.78c-1.174.627-2.48.94-3.92.94-1.56 0-2.787-.447-3.68-1.34-.88-.893-1.32-2.18-1.32-3.86 0-1.733.46-3.08 1.38-4.04s2.1-1.44 3.54-1.44c1.333 0 2.38.42 3.14 1.26s1.14 2.073 1.14 3.7c0 .36-.02.72-.06 1.08zm9.478-5.26-.52 2c-.76-.533-1.474-.8-2.14-.8-.774 0-1.394.287-1.86.86-.467.56-.7 1.407-.7 2.54s.233 1.98.7 2.54c.48.56 1.12.84 1.92.84.773 0 1.486-.253 2.14-.76l.52 1.84c-.88.56-1.9.84-3.06.84-1.427 0-2.567-.447-3.42-1.34-.854-.893-1.28-2.187-1.28-3.88 0-1.733.453-3.073 1.36-4.02.906-.96 2.106-1.44 3.6-1.44 1.053 0 1.966.26 2.74.78zm1.02 1.38v-1.92h9.24v1.92h-3.38v8.28h-2.48v-8.28zm13.54.6c-.426.56-.64 1.433-.64 2.62s.214 2.067.64 2.64c.427.56.987.84 1.68.84.694 0 1.254-.28 1.68-.84.427-.573.64-1.453.64-2.64s-.213-2.06-.64-2.62c-.426-.573-.986-.86-1.68-.86-.693 0-1.253.287-1.68.86zm6.48 2.54c0 1.747-.46 3.08-1.38 4-.906.92-2.06 1.38-3.46 1.38-1.373 0-2.513-.447-3.42-1.34-.893-.907-1.34-2.227-1.34-3.96 0-1.747.454-3.08 1.36-4 .92-.92 2.08-1.38 3.48-1.38 1.374 0 2.507.453 3.4 1.36.907.893 1.36 2.207 1.36 3.94z" fill="#29973c"/></svg>